<?xml version="1.0" standalone="no"?>
<!DOCTYPE svg PUBLIC "-//W3C//DTD SVG 20010904//EN"
 "http://www.w3.org/TR/2001/REC-SVG-20010904/DTD/svg10.dtd">
<svg version="1.0" xmlns="http://www.w3.org/2000/svg"
 width="577.000000pt" height="432.000000pt" viewBox="0 0 577.000000 432.000000"
 preserveAspectRatio="xMidYMid meet">

<g transform="translate(0.000000,432.000000) scale(0.100000,-0.100000)"
fill="#000000" stroke="none">
<path d="M2260 2634 c-366 -283 -320 -254 -394 -254 -73 0 -96 -14 -96 -59 0
-26 -5 -29 -47 -39 -27 -5 -106 -22 -176 -37 l-128 -28 -43 22 c-34 17 -61 21
-130 21 -101 0 -126 -15 -126 -76 0 -19 -7 -42 -15 -50 -9 -10 -15 -34 -15
-64 0 -43 -3 -49 -22 -52 -16 -2 -24 -11 -26 -29 -3 -24 1 -27 44 -33 26 -3
64 -6 85 -6 37 0 39 -2 39 -30 l0 -30 -85 0 -85 0 0 -45 c0 -39 3 -45 25 -51
19 -5 25 -13 25 -35 0 -29 0 -29 61 -29 l60 0 -3 -37 -3 -38 -58 -3 c-50 -3
-57 -5 -47 -18 9 -10 36 -14 101 -14 86 0 89 -1 103 -27 41 -79 100 -103 254
-103 139 0 187 18 237 87 l30 42 282 0 281 0 26 -37 c14 -20 42 -48 63 -62 33
-23 47 -25 168 -28 171 -5 205 4 269 71 l49 52 455 2 456 2 47 -52 c60 -67 91
-77 250 -77 144 0 185 13 240 77 19 22 44 43 57 47 12 4 22 15 22 26 0 12 11
22 33 29 41 14 177 97 195 119 6 9 12 35 12 59 l0 43 -129 0 c-125 0 -129 1
-135 23 -13 47 -13 47 129 47 l135 0 0 30 0 30 -156 0 -156 0 -41 35 c-48 41
-105 59 -160 51 -39 -7 -102 -41 -126 -70 -12 -14 -68 -16 -588 -16 l-575 0
-41 35 c-84 72 -180 72 -264 0 l-41 -35 -221 0 -221 0 0 55 c0 67 12 77 120
99 41 9 129 27 195 41 217 46 309 66 385 81 47 9 81 21 90 33 162 201 309 381
327 401 13 14 23 28 23 32 0 5 -190 8 -422 7 l-423 0 -175 -135z m-955 -464
l0 -65 -75 0 -75 0 -3 54 c-5 81 -3 82 80 79 l73 -3 0 -65z m783 58 c14 -14
16 -96 3 -116 -5 -9 -29 -12 -82 -10 l-74 3 -3 53 c-2 31 2 60 9 68 14 18 130
19 147 2z m745 -202 c115 -49 163 -238 94 -373 -104 -204 -336 -109 -337 139
0 67 4 84 33 139 48 94 128 130 210 95z m1522 -17 c19 -13 46 -47 61 -76 118
-235 -97 -511 -263 -337 -116 120 -86 368 52 431 41 18 108 10 150 -18z
m-1815 -61 c0 -7 -3 -23 -6 -35 l-6 -23 -279 0 -279 0 0 30 0 29 83 4 c45 1
173 4 285 5 156 2 202 -1 202 -10z m1487 -23 l-10 -35 -518 0 -517 0 -6 23
c-3 12 -6 28 -6 35 0 9 113 12 534 12 l534 0 -11 -35z m-2349 -197 l3 -68
-164 0 c-181 0 -177 -1 -177 63 0 18 3 42 6 55 6 22 7 22 168 20 l161 -3 3
-67z m380 -35 l-3 -38 -68 -3 c-42 -2 -74 2 -83 9 -14 12 -19 51 -7 62 3 4 42
7 85 7 l79 0 -3 -37z"/>
<path d="M2724 1990 c-32 -13 -82 -76 -93 -117 -24 -87 -8 -183 40 -238 55
-63 128 -69 186 -16 52 47 68 87 68 171 0 62 -4 83 -25 120 -42 74 -112 106
-176 80z m42 -128 c37 -24 43 -87 13 -126 -39 -50 -99 -18 -99 52 0 63 45 102
86 74z"/>
<path d="M4204 1981 c-72 -44 -108 -146 -86 -247 27 -131 140 -191 227 -122
40 31 75 113 75 174 0 154 -114 257 -216 195z m67 -132 c40 -40 11 -138 -40
-139 -29 0 -61 42 -61 80 0 72 56 104 101 59z"/>
<path d="M3203 2538 l-192 -233 34 -3 c26 -2 34 -8 37 -25 3 -21 8 -22 112
-25 109 -3 136 4 136 34 0 9 -12 14 -36 14 -23 0 -34 4 -32 12 6 16 69 18 75
1 4 -10 60 -13 274 -13 178 0 269 3 269 10 0 10 -25 65 -146 324 l-61 131
-139 3 -139 3 -192 -233z"/>
<path d="M3780 2765 c0 -2 14 -35 31 -72 17 -38 50 -111 74 -163 24 -52 57
-125 74 -162 l31 -68 295 0 c286 0 295 1 295 20 0 20 -32 43 -367 256 -337
213 -300 194 -370 194 -35 0 -63 -2 -63 -5z"/>
<path d="M4818 2030 c-3 -243 -5 -283 -19 -293 -9 -7 -14 -18 -11 -25 2 -7 0
-12 -5 -10 -13 3 -74 -32 -69 -40 3 -4 -4 -9 -15 -9 -25 -2 -51 -22 -43 -34 3
-5 -2 -6 -10 -3 -19 7 -79 -34 -70 -48 4 -6 2 -8 -3 -5 -6 4 -18 -5 -27 -18
-9 -14 -21 -23 -27 -20 -12 8 -81 -60 -71 -70 4 -5 2 -5 -5 -1 -7 4 -21 -2
-31 -12 -10 -10 -23 -17 -29 -15 -6 2 -14 -1 -18 -6 -3 -6 -15 -11 -26 -11
-11 0 -18 -3 -16 -7 3 -5 -71 -7 -164 -6 l-170 3 -62 42 c-34 24 -66 41 -72
39 -5 -1 -7 0 -3 4 4 4 1 14 -7 21 -19 19 -794 21 -814 2 -11 -10 -13 -10 -7
0 4 7 2 12 -7 12 -19 0 -60 -46 -53 -59 5 -7 1 -8 -10 -4 -12 4 -15 3 -10 -5
5 -8 0 -12 -13 -12 -12 0 -21 -4 -21 -10 0 -5 -9 -10 -21 -10 -11 0 -30 -5
-41 -11 -12 -7 -79 -11 -172 -10 -103 1 -146 -2 -136 -9 9 -6 10 -10 3 -10 -6
0 -18 7 -27 15 -8 8 -19 15 -24 15 -5 0 -34 18 -65 39 -30 22 -58 37 -60 34
-3 -2 -8 5 -12 16 -6 20 -13 20 -242 20 l-236 0 -59 -54 c-33 -29 -65 -52 -71
-49 -7 2 -19 -1 -27 -6 -13 -9 -13 -11 0 -20 9 -6 10 -10 3 -10 -6 0 -15 4
-18 10 -4 6 -66 10 -153 10 -145 0 -148 1 -205 31 l-58 30 -45 -26 c-25 -15
-48 -33 -51 -41 -14 -38 95 -97 257 -142 l95 -25 510 -5 c656 -6 796 -5 930 8
60 5 346 13 635 16 587 6 672 14 777 65 65 31 143 108 143 139 0 10 7 23 15
30 8 7 15 9 15 4 0 -4 11 3 25 16 14 13 23 30 21 37 -3 7 0 12 7 10 7 -1 11 4
9 11 -1 8 1 11 6 8 11 -7 92 33 92 45 0 5 7 9 16 9 9 0 12 5 8 12 -4 7 -3 8 4
4 23 -14 88 48 97 93 6 32 7 84 6 304 -1 156 -4 216 -12 211 -8 -5 -8 -1 0 14
8 15 6 23 -9 37 -18 17 -19 12 -22 -265z m-123 -420 c3 -6 -1 -7 -9 -4 -18 7
-21 14 -7 14 6 0 13 -4 16 -10z m-65 -10 c0 -5 -5 -10 -11 -10 -5 0 -7 5 -4
10 3 6 8 10 11 10 2 0 4 -4 4 -10z m-26 -26 c3 -8 2 -12 -4 -9 -6 3 -10 10
-10 16 0 14 7 11 14 -7z m-1584 -98 c0 -2 -8 -10 -17 -17 -16 -13 -17 -12 -4
4 13 16 21 21 21 13z"/>
<path d="M3733 2213 c-18 -7 -16 -30 3 -37 24 -9 117 -7 133 3 8 5 11 16 8 25
-5 12 -20 16 -69 15 -35 0 -69 -3 -75 -6z"/>
<path d="M1128 1500 c17 -14 37 -19 73 -18 27 0 52 5 55 9 3 5 -2 9 -11 9 -9
0 -14 3 -11 8 2 4 -26 8 -62 10 l-67 2 23 -20z"/>
</g>
</svg>
